<svg width="1934" height="58" viewBox="0 0 1934 58" fill="none" xmlns="http://www.w3.org/2000/svg">
<rect y="2" width="1934" height="54" fill="#FFC700"/>
<rect y="2" width="1934" height="54" fill="#FFC700"/>
<rect x="372" y="2" width="31" height="28" fill="#2F2E2B"/>
<rect x="372" y="2" width="31" height="28" fill="#2F2E2B"/>
<rect x="589" y="29" width="31" height="28" fill="#2F2E2B"/>
<rect x="589" y="29" width="31" height="28" fill="#2F2E2B"/>
<rect x="868" y="2" width="31" height="28" fill="#2F2E2B"/>
<rect x="868" y="2" width="31" height="28" fill="#2F2E2B"/>
<rect x="837" y="28" width="31" height="28" fill="#2F2E2B"/>
<rect x="837" y="28" width="31" height="28" fill="#2F2E2B"/>
<rect x="806" width="31" height="28" fill="#2F2E2B"/>
<rect x="806" width="31" height="28" fill="#2F2E2B"/>
<rect x="775" y="28" width="31" height="28" fill="#2F2E2B"/>
<rect x="775" y="28" width="31" height="28" fill="#2F2E2B"/>
<rect x="744" y="2" width="31" height="28" fill="#2F2E2B"/>
<rect x="744" y="2" width="31" height="28" fill="#2F2E2B"/>
<rect x="713" y="28" width="31" height="28" fill="#2F2E2B"/>
<rect x="713" y="28" width="31" height="28" fill="#2F2E2B"/>
<rect x="682" width="31" height="28" fill="#2F2E2B"/>
<rect x="682" width="31" height="28" fill="#2F2E2B"/>
<rect x="651" y="28" width="31" height="28" fill="#2F2E2B"/>
<rect x="651" y="28" width="31" height="28" fill="#2F2E2B"/>
<rect x="620" y="2" width="31" height="28" fill="#2F2E2B"/>
<rect x="620" y="2" width="31" height="28" fill="#2F2E2B"/>
<rect x="558" width="31" height="28" fill="#2F2E2B"/>
<rect x="558" width="31" height="28" fill="#2F2E2B"/>
<rect x="527" y="28" width="31" height="28" fill="#2F2E2B"/>
<rect x="527" y="28" width="31" height="28" fill="#2F2E2B"/>
<rect x="496" width="31" height="28" fill="#2F2E2B"/>
<rect x="496" width="31" height="28" fill="#2F2E2B"/>
<rect x="434" y="2" width="31" height="28" fill="#2F2E2B"/>
<rect x="434" y="2" width="31" height="28" fill="#2F2E2B"/>
<rect x="465" y="28" width="31" height="28" fill="#2F2E2B"/>
<rect x="465" y="28" width="31" height="28" fill="#2F2E2B"/>
<rect x="403" y="30" width="31" height="28" fill="#2F2E2B"/>
<rect x="403" y="30" width="31" height="28" fill="#2F2E2B"/>
<rect x="899" y="28" width="31" height="28" fill="#2F2E2B"/>
<rect x="899" y="28" width="31" height="28" fill="#2F2E2B"/>
<rect x="1174" y="2" width="31" height="28" fill="#2F2E2B"/>
<rect x="1174" y="2" width="31" height="28" fill="#2F2E2B"/>
<rect x="1143" y="28" width="31" height="28" fill="#2F2E2B"/>
<rect x="1143" y="28" width="31" height="28" fill="#2F2E2B"/>
<rect x="1114" y="1" width="31" height="28" fill="#2F2E2B"/>
<rect x="1114" y="1" width="31" height="28" fill="#2F2E2B"/>
<rect x="1083" y="28" width="31" height="28" fill="#2F2E2B"/>
<rect x="1083" y="28" width="31" height="28" fill="#2F2E2B"/>
<rect x="1052" y="2" width="31" height="28" fill="#2F2E2B"/>
<rect x="1052" y="2" width="31" height="28" fill="#2F2E2B"/>
<rect x="1023" y="28" width="31" height="28" fill="#2F2E2B"/>
<rect x="1023" y="28" width="31" height="28" fill="#2F2E2B"/>
<rect x="992" width="31" height="28" fill="#2F2E2B"/>
<rect x="992" width="31" height="28" fill="#2F2E2B"/>
<rect x="961" y="28" width="31" height="28" fill="#2F2E2B"/>
<rect x="961" y="28" width="31" height="28" fill="#2F2E2B"/>
<rect x="930" y="1" width="31" height="28" fill="#2F2E2B"/>
<rect x="930" y="1" width="31" height="28" fill="#2F2E2B"/>
<rect x="1205" y="28" width="31" height="28" fill="#2F2E2B"/>
<rect x="1205" y="28" width="31" height="28" fill="#2F2E2B"/>
<rect x="1236" width="31" height="28" fill="#2F2E2B"/>
<rect x="1236" width="31" height="28" fill="#2F2E2B"/>
<rect x="1265" y="28" width="31" height="28" fill="#2F2E2B"/>
<rect x="1265" y="28" width="31" height="28" fill="#2F2E2B"/>
<rect x="1296" width="31" height="28" fill="#2F2E2B"/>
<rect x="1296" width="31" height="28" fill="#2F2E2B"/>
<rect x="1327" y="28" width="31" height="28" fill="#2F2E2B"/>
<rect x="1327" y="28" width="31" height="28" fill="#2F2E2B"/>
<rect x="1358" width="31" height="28" fill="#2F2E2B"/>
<rect x="1358" width="31" height="28" fill="#2F2E2B"/>
<rect x="1389" y="28" width="31" height="28" fill="#2F2E2B"/>
<rect x="1389" y="28" width="31" height="28" fill="#2F2E2B"/>
<rect x="1420" width="31" height="28" fill="#2F2E2B"/>
<rect x="1420" width="31" height="28" fill="#2F2E2B"/>
<rect x="1451" y="28" width="31" height="28" fill="#2F2E2B"/>
<rect x="1451" y="28" width="31" height="28" fill="#2F2E2B"/>
<rect x="1480" width="31" height="28" fill="#2F2E2B"/>
<rect x="1480" width="31" height="28" fill="#2F2E2B"/>
<rect x="1511" y="28" width="31" height="28" fill="#2F2E2B"/>
<rect x="1511" y="28" width="31" height="28" fill="#2F2E2B"/>
<rect x="1542" width="31" height="28" fill="#2F2E2B"/>
<rect x="1542" width="31" height="28" fill="#2F2E2B"/>
<rect x="1573" y="28" width="31" height="28" fill="#2F2E2B"/>
<rect x="1573" y="28" width="31" height="28" fill="#2F2E2B"/>
<rect x="1602" y="2" width="31" height="28" fill="#2F2E2B"/>
<rect x="1602" y="2" width="31" height="28" fill="#2F2E2B"/>
<rect x="1633" y="28" width="31" height="28" fill="#2F2E2B"/>
<rect x="1633" y="28" width="31" height="28" fill="#2F2E2B"/>
<rect x="1662" y="1" width="31" height="28" fill="#2F2E2B"/>
<rect x="1662" y="1" width="31" height="28" fill="#2F2E2B"/>
<rect x="1693" y="28" width="31" height="28" fill="#2F2E2B"/>
<path d="M1724 0H1755V28H1724V0Z" fill="#2F2E2B"/>
<rect x="1755" y="28" width="31" height="28" fill="#2F2E2B"/>
<rect x="1784" y="1" width="31" height="28" fill="#2F2E2B"/>
<rect x="1815" y="28" width="31" height="28" fill="#2F2E2B"/>
<rect x="1844" y="2" width="31" height="28" fill="#2F2E2B"/>
<rect x="1875" y="28" width="31" height="28" fill="#2F2E2B"/>
<rect x="1903" y="2" width="31" height="28" fill="#2F2E2B"/>
</svg>
